# xmcd CD database file
#
# Track frame offsets:
#	150
#	17967
#	34275
#
# Disc length: 691 seconds
#
# Revision: 6
# Processed by: cddbd v1.5.2PL0 Copyright (c) Steve Scherf et al.
# Submitted via: CDex 1.84
#
DISCID=2002b103
DTITLE=Worlds Apart - Just Say I Said Hello
DYEAR=1996
DGENRE=Europop
TTITLE0=Just Say I Said Hello (New Mix)
TTITLE1=Just Say I Said Hello (Re-mastered Album Version)
TTITLE2=In And Out Of Love
EXTD=YEAR: 1996
EXTT0=
EXTT1=
EXTT2=
PLAYORDER=
